<?xml version="1.0" standalone="no"?>
<!DOCTYPE svg PUBLIC "-//W3C//DTD SVG 20010904//EN"
 "http://www.w3.org/TR/2001/REC-SVG-20010904/DTD/svg10.dtd">
<svg version="1.0" xmlns="http://www.w3.org/2000/svg"
 width="1193.000000pt" height="886.000000pt" viewBox="0 0 1193.000000 886.000000"
 preserveAspectRatio="xMidYMid meet">
<metadata>
Created by potrace 1.16, written by Peter Selinger 2001-2019
</metadata>
<g transform="translate(0.000000,886.000000) scale(0.100000,-0.100000)"
fill="currentColor" stroke="none">
<path d="M5950 6490 c0 -6 -48 -10 -125 -10 -104 0 -125 -2 -125 -15 0 -10
-11 -15 -35 -15 -19 0 -35 -4 -35 -10 0 -5 -18 -10 -40 -10 -29 0 -40 -4 -40
-15 0 -8 -9 -15 -20 -15 -11 0 -20 -4 -20 -10 0 -5 -11 -10 -25 -10 -14 0 -25
-4 -25 -10 0 -5 -11 -10 -25 -10 -16 0 -25 -6 -25 -15 0 -8 -9 -15 -20 -15
-11 0 -20 -4 -20 -10 0 -5 -9 -10 -21 -10 -22 0 -49 -22 -49 -39 0 -6 -10 -11
-23 -11 -12 0 -29 -9 -37 -20 -8 -11 -20 -20 -27 -20 -7 0 -13 -5 -13 -10 0
-14 -46 -60 -60 -60 -5 0 -10 -7 -10 -15 0 -8 -4 -15 -10 -15 -5 0 -10 -9 -10
-20 0 -11 -7 -20 -15 -20 -11 0 -15 -12 -15 -50 0 -27 -4 -50 -10 -50 -5 0
-10 -20 -10 -45 0 -25 -4 -45 -10 -45 -5 0 -10 -11 -10 -25 0 -14 5 -25 10
-25 6 0 10 -38 10 -95 0 -57 -4 -95 -10 -95 -7 0 -10 -167 -10 -480 0 -420 -2
-480 -15 -480 -8 0 -15 -4 -15 -10 0 -5 7 -10 15 -10 13 0 15 -23 15 -145 0
-122 -2 -145 -15 -145 -8 0 -15 7 -15 15 0 8 -9 15 -20 15 -11 0 -20 5 -20 10
0 6 -11 10 -25 10 -14 0 -25 5 -25 10 0 6 -11 10 -25 10 -16 0 -25 6 -25 15 0
10 -10 15 -33 15 -21 0 -38 7 -47 20 -8 11 -25 20 -37 20 -13 0 -23 5 -23 11
0 17 -27 39 -49 39 -12 0 -21 5 -21 11 0 16 -26 39 -45 39 -19 0 -45 23 -45
39 0 6 -5 11 -10 11 -14 0 -60 46 -60 60 0 5 -7 10 -15 10 -9 0 -15 9 -15 25
0 25 0 25 -97 25 -129 0 -215 -15 -288 -49 -58 -27 -62 -31 -132 -147 -108
-181 -125 -219 -131 -297 -4 -60 -2 -69 17 -86 13 -11 21 -30 21 -50 0 -21 5
-31 15 -31 11 0 15 -11 15 -40 0 -39 1 -40 35 -40 19 0 35 -4 35 -10 0 -5 9
-10 20 -10 11 0 20 -4 20 -10 0 -5 23 -10 50 -10 38 0 50 -4 50 -15 0 -10 11
-15 35 -15 19 0 35 -4 35 -10 0 -5 11 -10 25 -10 14 0 25 -4 25 -10 0 -5 9
-10 20 -10 11 0 20 -7 20 -15 0 -9 9 -15 23 -15 12 0 29 -9 37 -20 8 -11 20
-20 27 -20 7 0 13 -7 13 -15 0 -8 5 -15 10 -15 6 0 10 7 10 15 0 8 5 15 10 15
6 0 10 -7 10 -15 0 -9 9 -15 25 -15 14 0 25 -4 25 -10 0 -5 9 -10 21 -10 22 0
49 -22 49 -39 0 -6 15 -11 33 -11 21 0 38 -7 47 -20 8 -11 20 -20 27 -20 7 0
13 -7 13 -15 0 -10 11 -15 35 -15 19 0 35 -4 35 -10 0 -5 11 -10 25 -10 14 0
25 -4 25 -10 0 -5 9 -10 20 -10 11 0 20 -7 20 -15 0 -8 7 -15 15 -15 8 0 15
-4 15 -10 0 -5 9 -10 20 -10 11 0 20 -4 20 -10 0 -5 11 -10 25 -10 16 0 25 -6
25 -15 0 -9 9 -15 25 -15 14 0 25 -4 25 -10 0 -5 9 -10 20 -10 11 0 20 -7 20
-15 0 -9 9 -15 25 -15 18 0 25 -5 25 -20 0 -11 5 -20 10 -20 6 0 10 -11 10
-25 0 -14 -4 -25 -10 -25 -5 0 -10 -16 -10 -35 0 -19 5 -35 10 -35 6 0 10 -45
10 -115 0 -96 3 -115 15 -115 9 0 15 -9 15 -25 0 -16 -6 -25 -15 -25 -12 0
-15 -17 -15 -95 0 -78 3 -95 15 -95 13 0 15 -30 15 -210 l0 -210 35 0 c28 0
35 4 35 20 0 11 5 20 10 20 6 0 10 11 10 25 0 16 6 25 15 25 9 0 15 9 15 25 0
18 5 25 20 25 15 0 20 7 20 25 0 16 6 25 15 25 8 0 15 9 15 20 0 11 5 20 10
20 6 0 10 7 10 15 0 8 5 15 10 15 6 0 10 9 10 20 0 11 7 20 15 20 8 0 15 6 15
13 0 7 9 19 20 27 11 8 20 25 20 37 0 14 6 23 15 23 8 0 15 9 15 20 0 11 5 20
10 20 6 0 10 9 10 21 0 22 22 49 39 49 6 0 11 7 11 15 0 8 5 15 10 15 6 0 10
16 10 35 0 19 5 35 10 35 6 0 10 11 10 25 0 20 5 25 25 25 18 0 25 5 25 20 0
11 -4 20 -10 20 -15 0 -12 39 4 56 8 8 24 14 35 14 12 0 21 6 21 15 0 8 5 15
10 15 6 0 10 -7 10 -15 0 -9 9 -15 25 -15 14 0 25 -4 25 -10 0 -5 16 -10 35
-10 19 0 35 -4 35 -10 0 -5 11 -10 25 -10 16 0 25 -6 25 -15 0 -8 9 -15 20
-15 11 0 20 -4 20 -10 0 -5 11 -10 25 -10 14 0 25 -4 25 -10 0 -5 16 -10 35
-10 24 0 35 -5 35 -15 0 -9 9 -15 25 -15 14 0 25 -4 25 -10 0 -5 20 -10 45
-10 33 0 45 -4 45 -15 0 -9 9 -15 24 -15 13 0 27 -6 30 -12 5 -10 7 -10 12 0
8 18 28 15 44 -8 9 -13 26 -20 47 -20 23 0 33 -5 33 -15 0 -8 5 -15 10 -15 6
0 10 7 10 15 0 8 7 15 15 15 8 0 15 -7 15 -15 0 -10 11 -15 35 -15 19 0 35 -4
35 -10 0 -5 14 -10 31 -10 30 0 59 -19 59 -39 0 -6 16 -11 35 -11 19 0 35 -4
35 -10 0 -5 23 -10 50 -10 28 0 50 -4 50 -10 0 -5 16 -10 35 -10 24 0 35 -5
35 -15 0 -11 11 -15 43 -15 31 0 46 -5 57 -20 20 -28 42 -25 111 11 74 40 145
109 184 180 28 50 30 61 30 159 0 116 -15 162 -90 275 l-37 55 -59 0 c-33 0
-59 -4 -59 -10 0 -5 -9 -10 -20 -10 -11 0 -20 5 -20 10 0 6 -16 10 -35 10 -19
0 -35 5 -35 10 0 6 -11 10 -25 10 -16 0 -25 6 -25 15 0 11 -12 15 -45 15 -25
0 -45 5 -45 10 0 6 -11 10 -25 10 -16 0 -25 6 -25 15 0 10 -11 15 -35 15 -19
0 -35 5 -35 10 0 6 -16 10 -35 10 -19 0 -35 5 -35 10 0 6 -11 10 -25 10 -16 0
-25 6 -25 15 0 9 -9 15 -25 15 -14 0 -25 5 -25 10 0 6 -16 10 -35 10 -19 0
-35 5 -35 10 0 6 -20 10 -45 10 -33 0 -45 4 -45 15 0 9 -9 15 -23 15 -12 0
-29 9 -37 20 -8 11 -25 20 -37 20 -13 0 -23 6 -23 13 0 7 -9 19 -20 27 -34 25
-17 80 25 80 19 0 45 23 45 39 0 6 11 11 25 11 14 0 25 5 25 10 0 6 9 10 20
10 11 0 20 5 20 10 0 6 7 10 15 10 8 0 15 5 15 10 0 19 48 60 70 60 11 0 20 5
20 11 0 14 25 39 39 39 6 0 11 10 11 23 0 12 9 29 20 37 11 8 20 20 20 27 0 7
7 13 15 13 8 0 15 9 15 20 0 11 5 20 10 20 6 0 10 7 10 15 0 9 9 15 25 15 21
0 25 5 25 31 0 30 19 59 39 59 6 0 11 11 11 25 0 14 5 25 10 25 6 0 10 9 10
20 0 11 5 20 10 20 6 0 10 11 10 25 0 16 6 25 15 25 12 0 15 13 15 60 0 33 4
60 10 60 6 0 10 11 10 25 0 14 5 25 10 25 6 0 10 16 10 35 0 24 5 35 15 35 8
0 15 9 15 20 0 11 5 20 10 20 6 0 10 23 10 50 0 28 5 50 10 50 6 0 10 20 10
45 0 33 4 45 15 45 13 0 15 38 15 280 l0 281 25 24 c13 14 33 25 45 25 11 0
20 7 20 15 0 10 11 15 35 15 19 0 35 5 35 10 0 6 11 10 25 10 14 0 25 5 25 10
0 6 20 10 45 10 33 0 45 4 45 15 0 12 13 15 60 15 33 0 60 4 60 10 0 6 16 10
35 10 19 0 35 5 35 10 0 6 20 10 45 10 33 0 45 4 45 15 0 11 11 15 40 15 22 0
40 5 40 10 0 6 16 10 35 10 19 0 35 5 35 10 0 6 20 10 45 10 33 0 45 4 45 15
0 10 11 15 35 15 19 0 35 5 35 10 0 6 11 10 25 10 14 0 25 5 25 10 0 6 20 10
45 10 33 0 45 4 45 15 0 9 9 15 25 15 14 0 25 5 25 10 0 6 9 10 21 10 22 0 49
22 49 39 0 6 5 11 10 11 6 0 10 5 10 10 0 6 -16 10 -35 10 -24 0 -35 5 -35 15
0 10 -11 15 -35 15 -19 0 -35 5 -35 10 0 6 -27 10 -60 10 -33 0 -60 4 -60 10
0 6 -16 10 -35 10 -24 0 -35 5 -35 15 0 8 -9 15 -20 15 -11 0 -20 5 -20 10 0
6 -22 10 -50 10 -27 0 -50 5 -50 10 0 6 -16 10 -35 10 -24 0 -35 5 -35 15 0
11 -12 15 -45 15 -25 0 -45 5 -45 10 0 6 -22 10 -50 10 -27 0 -50 5 -50 10 0
6 -25 10 -55 10 -42 0 -55 3 -55 15 0 9 -9 15 -25 15 -14 0 -25 5 -25 10 0 6
-16 10 -35 10 -19 0 -35 5 -35 10 0 6 -16 10 -35 10 -24 0 -35 5 -35 15 0 11
-12 15 -50 15 -27 0 -50 5 -50 10 0 6 -30 10 -70 10 -40 0 -70 4 -70 10 0 6
-9 10 -20 10 -11 0 -20 7 -20 15 0 9 -9 15 -25 15 -14 0 -25 5 -25 10 0 6 -20
10 -45 10 -25 0 -45 5 -45 10 0 6 -27 10 -60 10 -47 0 -60 3 -60 15 0 12 -13
15 -60 15 -33 0 -60 4 -60 10 0 6 -20 10 -45 10 -33 0 -45 4 -45 15 0 12 -13
15 -60 15 -33 0 -60 4 -60 10 0 6 -35 10 -85 10 -50 0 -85 -4 -85 -10z m100
-170 c0 -6 33 -10 80 -10 47 0 80 -4 80 -10 0 -5 11 -10 25 -10 16 0 25 -6 25
-15 0 -11 12 -15 45 -15 25 0 45 -4 45 -10 0 -5 16 -10 35 -10 19 0 35 -4 35
-10 0 -5 7 -10 15 -10 8 0 15 -7 15 -15 0 -8 9 -15 20 -15 11 0 20 -4 20 -10
0 -5 7 -10 15 -10 8 0 15 -4 15 -10 0 -5 11 -10 25 -10 14 0 25 -5 25 -11 0
-17 27 -39 49 -39 12 0 21 -4 21 -10 0 -5 9 -10 20 -10 11 0 20 -7 20 -15 0
-8 7 -15 15 -15 8 0 15 -9 15 -20 0 -11 -7 -20 -15 -20 -8 0 -15 -6 -15 -13 0
-7 -9 -19 -20 -27 -11 -8 -20 -20 -20 -27 0 -8 -13 -13 -35 -13 -19 0 -35 -4
-35 -10 0 -5 -11 -10 -25 -10 -14 0 -25 -4 -25 -10 0 -5 -7 -10 -15 -10 -8 0
-15 -7 -15 -15 0 -10 -11 -15 -35 -15 -19 0 -35 -4 -35 -10 0 -5 -9 -10 -20
-10 -11 0 -20 -4 -20 -10 0 -5 -11 -10 -25 -10 -16 0 -25 -6 -25 -15 0 -11
-12 -15 -45 -15 -25 0 -45 -4 -45 -10 0 -5 -16 -10 -35 -10 -19 0 -35 -4 -35
-10 0 -6 -32 -10 -75 -10 -60 0 -75 -3 -75 -15 0 -8 -9 -15 -20 -15 -11 0 -20
7 -20 15 0 12 -16 15 -85 15 -50 0 -85 4 -85 10 0 6 -16 10 -35 10 -19 0 -35
5 -35 10 0 6 -9 10 -20 10 -11 0 -20 7 -20 15 0 10 -11 15 -35 15 -19 0 -35 5
-35 10 0 6 -18 10 -40 10 -22 0 -40 5 -40 10 0 6 -9 10 -20 10 -11 0 -20 7
-20 15 0 8 -6 15 -13 15 -7 0 -19 9 -27 20 -8 11 -25 20 -37 20 -14 0 -23 6
-23 15 0 8 -9 15 -20 15 -11 0 -20 5 -20 10 0 6 -7 10 -15 10 -8 0 -15 7 -15
15 0 8 -4 15 -10 15 -5 0 -10 9 -10 20 0 11 5 20 10 20 6 0 10 7 10 15 0 9 9
15 23 15 12 0 29 9 37 20 8 11 20 20 27 20 7 0 13 5 13 11 0 20 29 39 59 39
17 0 31 5 31 10 0 6 11 10 25 10 16 0 25 6 25 15 0 9 9 15 25 15 14 0 25 5 25
10 0 6 9 10 20 10 11 0 20 5 20 10 0 6 11 10 25 10 16 0 25 6 25 15 0 12 14
15 70 15 40 0 70 4 70 10 0 6 16 10 35 10 19 0 35 5 35 10 0 6 27 10 60 10 33
0 60 -4 60 -10z m-50 -1065 c0 -103 -4 -165 -10 -165 -5 0 -10 -22 -10 -50 0
-38 -4 -50 -15 -50 -8 0 -15 -4 -15 -10 0 -5 -4 -10 -10 -10 -6 0 -10 50 -10
130 0 80 4 130 10 130 6 0 10 33 10 80 0 64 3 80 15 80 8 0 15 7 15 15 0 8 5
15 10 15 6 0 10 -62 10 -165z m-540 -100 c0 -150 -4 -235 -10 -235 -5 0 -10
-25 -10 -55 0 -56 -9 -67 -36 -41 -11 12 -14 54 -14 210 0 124 4 196 10 196 6
0 10 27 10 60 0 47 3 60 15 60 8 0 15 9 15 20 0 11 5 20 10 20 6 0 10 -85 10
-235z m940 -220 c0 -8 -4 -15 -10 -15 -5 0 -10 -9 -10 -20 0 -11 5 -20 10 -20
6 0 10 -7 10 -15 0 -8 -4 -15 -10 -15 -6 0 -10 -33 -10 -80 0 -64 -3 -80 -15
-80 -11 0 -15 -12 -15 -45 0 -25 -4 -45 -10 -45 -5 0 -10 -11 -10 -25 0 -14
-4 -25 -10 -25 -5 0 -10 -7 -10 -15 0 -8 -7 -15 -15 -15 -12 0 -15 16 -15 85
0 69 3 85 15 85 10 0 15 11 15 35 0 19 5 35 10 35 6 0 10 20 10 45 0 25 5 45
10 45 6 0 10 16 10 35 0 24 5 35 15 35 8 0 15 7 15 15 0 8 5 15 10 15 6 0 10
-7 10 -15z m-590 -620 c0 -57 -4 -95 -10 -95 -5 0 -10 -20 -10 -45 0 -25 -4
-45 -10 -45 -5 0 -10 -22 -10 -50 0 -47 -2 -50 -25 -50 -25 0 -25 0 -25 95 0
57 4 95 10 95 6 0 10 27 10 60 0 47 3 60 15 60 10 0 15 11 15 35 0 28 4 35 20
35 19 0 20 -7 20 -95z m-370 -540 c0 -140 -2 -165 -15 -165 -11 0 -15 -12 -15
-46 0 -40 -16 -74 -34 -74 -3 0 -6 63 -6 140 0 87 4 140 10 140 6 0 10 30 10
70 0 40 4 70 10 70 6 0 10 7 10 15 0 8 7 15 15 15 13 0 15 -25 15 -165z"/>
<path d="M5910 6230 c0 -5 -7 -10 -15 -10 -8 0 -15 -5 -15 -11 0 -16 -26 -39
-45 -39 -37 0 -45 -25 -45 -134 0 -64 4 -106 10 -106 6 0 10 -9 10 -20 0 -11
7 -20 15 -20 8 0 15 -5 15 -11 0 -17 27 -39 49 -39 12 0 21 -4 21 -10 0 -5 16
-10 35 -10 24 0 35 -5 35 -15 0 -8 5 -15 10 -15 6 0 10 7 10 15 0 10 11 15 35
15 19 0 35 5 35 10 0 6 16 10 35 10 19 0 35 5 35 10 0 6 11 10 25 10 16 0 25
6 25 15 0 8 5 15 10 15 6 0 10 9 10 20 0 11 7 20 15 20 11 0 15 11 15 40 0 22
5 40 10 40 6 0 10 9 10 20 0 11 -4 20 -10 20 -5 0 -10 16 -10 35 0 24 -5 35
-15 35 -8 0 -15 7 -15 15 0 8 -4 15 -10 15 -5 0 -10 9 -10 20 0 11 -4 20 -10
20 -5 0 -10 7 -10 15 0 9 -9 15 -25 15 -14 0 -25 5 -25 10 0 6 -42 10 -105 10
-63 0 -105 -4 -105 -10z"/>
</g>
</svg>
