<?xml version="1.0" standalone="no"?><!DOCTYPE svg PUBLIC "-//W3C//DTD SVG 1.1//EN" "http://www.w3.org/Graphics/SVG/1.1/DTD/svg11.dtd"><svg t="1619841465187" class="icon" viewBox="0 0 1024 1024" version="1.1" xmlns="http://www.w3.org/2000/svg" p-id="1425" xmlns:xlink="http://www.w3.org/1999/xlink" width="200" height="200"><defs><style type="text/css"></style></defs><path d="M344 948.02a40.02 40.02 0 0 1-5.94-79.56l5.94-0.48h127.92v-88.02H176a124.02 124.02 0 0 1-123.66-115.08L51.98 656v-420c0-68.46 55.56-124.02 124.02-124.02h672c68.46 0 124.02 55.56 124.02 124.02v420a124.02 124.02 0 0 1-124.02 124.02H551.96v87.96H680a40.02 40.02 0 0 1 5.94 79.56l-5.94 0.48H344z m504-756H176a43.98 43.98 0 0 0-43.98 43.98v420c0 24.3 19.68 43.98 43.98 43.98h672a43.98 43.98 0 0 0 43.98-43.98v-420a43.98 43.98 0 0 0-43.98-43.98zM512 291.98c20.1 0 36.72 14.82 39.6 34.08L551.96 332v210a40.02 40.02 0 0 1-79.56 5.94L471.98 542V332c0-22.08 17.94-40.02 40.02-40.02z m180 120c20.1 0 36.72 14.82 39.6 34.08l0.42 5.94v90a40.02 40.02 0 0 1-79.56 5.94l-0.48-5.94V452c0-22.08 17.94-40.02 40.02-40.02z m-360-60c20.1 0 36.72 14.82 39.6 34.08L371.96 392v150a40.02 40.02 0 0 1-79.56 5.94L291.98 542V392c0-22.08 17.94-40.02 40.02-40.02z" fill="currentColor" p-id="1426"></path></svg>