<?xml version="1.0" standalone="no"?><!DOCTYPE svg PUBLIC "-//W3C//DTD SVG 1.1//EN" "http://www.w3.org/Graphics/SVG/1.1/DTD/svg11.dtd"><svg t="1618799170911" class="icon" viewBox="0 0 1024 1024" version="1.1" xmlns="http://www.w3.org/2000/svg" p-id="2313" xmlns:xlink="http://www.w3.org/1999/xlink" width="128" height="128"><defs><style type="text/css"></style></defs><path d="M684.08749971 329.56250029c0-100.38750029-82.05000029-181.76249971-183.2625-181.76250058-101.21249971 0-183.2625 81.37500029-183.2625 181.76250058 0 100.38750029 82.05000029 181.76249971 183.2625 181.76249971 101.25 0 183.2625-81.37500029 183.2625-181.76249971m256.68750058 576.5625c1.19999971 3.89999971 2.025 7.9875 2.025 12.29999942 0 23.625-19.27500029 42.82499971-43.0875 42.82500058a42.93749971 42.93749971 0 0 1-43.05000058-42.82500058v-0.14999942h-1.125c-11.21249971-179.2125-160.61249971-321.22500029-343.8-321.22500029-183.22499971 0-332.62499971 142.01250029-343.87499971 321.22500029h-0.97499971v0.14999942c0 23.625-19.27500029 42.82499971-43.05000058 42.82500058A42.93749971 42.93749971 0 0 1 80.74999971 918.42499971c0-4.05 0.74999971-7.875 1.8-11.62499942 12.52500029-162.63749971 115.91250029-299.925 260.28750058-361.125C275.75 497.0375 231.875 418.47499971 231.875 329.56250029 231.875 181.8125 352.43749971 62 501.12500029 62c148.725 0 269.25000029 119.8125 269.24999942 267.56250029a266.24999971 266.24999971 0 0 1-103.87499942 210.86249942c151.35000029 58.01249971 261.1125 198.225 274.275 365.70000058" fill="#333333" p-id="2314"></path></svg>