<?xml version="1.0" standalone="no"?><!DOCTYPE svg PUBLIC "-//W3C//DTD SVG 1.1//EN" "http://www.w3.org/Graphics/SVG/1.1/DTD/svg11.dtd"><svg t="1619350245979" class="icon" viewBox="0 0 1024 1024" version="1.1" xmlns="http://www.w3.org/2000/svg" p-id="1620" xmlns:xlink="http://www.w3.org/1999/xlink" width="128" height="128"><defs><style type="text/css"></style></defs><path d="M647.232 100.352H135.296C96 100.352 64 129.28 64 165.12v702.528c0 35.712 31.936 64.64 71.296 64.64h512c39.296 0 71.232-28.928 71.232-64.704v-91.136c0-11.904-10.624-21.568-23.68-21.568h-51.584c-13.12 0-23.744 9.6-23.744 21.568v34.624c-0.256 17.728-16.128 32-35.712 32H197.76c-19.648 0-35.648-14.528-35.648-32.448V221.312c0-17.92 16-32.448 35.648-32.448h386.112c19.584 0 35.456 14.336 35.648 32v35.648c0 11.968 10.688 21.632 23.808 21.632h51.456c13.184 0 23.808-9.6 23.808-21.632V165.12c0-35.776-31.936-64.768-71.296-64.768z m180.48 228.672a25.472 25.472 0 0 0-33.6 0l-38.272 34.688a20.224 20.224 0 0 0 0 30.592l83.584 75.904h-380.8c-13.12 0-23.68 9.6-23.68 21.568v49.152c0 11.904 10.56 21.568 23.68 21.568h380.544l-83.584 75.904a20.224 20.224 0 0 0 0 30.528l38.336 34.816c9.216 8.384 24.32 8.384 33.6 0l151.232-137.472 38.272-34.688a20.224 20.224 0 0 0 0-30.592l-189.312-171.968z" fill="curentColor" p-id="1621"></path></svg>