<?xml version="1.0" standalone="no"?><!DOCTYPE svg PUBLIC "-//W3C//DTD SVG 1.1//EN" "http://www.w3.org/Graphics/SVG/1.1/DTD/svg11.dtd"><svg t="1619335471363" class="icon" viewBox="0 0 1024 1024" version="1.1" xmlns="http://www.w3.org/2000/svg" p-id="1478" xmlns:xlink="http://www.w3.org/1999/xlink" width="128" height="128"><defs><style type="text/css"></style></defs><path d="M716.032 603.008a244.992 244.992 0 0 1 244.672 232.384l0.32 12.608v97.984a49.024 49.024 0 0 1-97.6 6.656l-0.448-6.656V848c0-77.824-60.416-141.44-136.96-146.688l-9.984-0.32H323.904c-77.76 0-141.44 60.48-146.624 136.96l-0.32 10.048v97.984a49.024 49.024 0 0 1-97.6 6.656l-0.448-6.656V848a244.992 244.992 0 0 1 232.448-244.672l12.608-0.32h392zM519.936 14.976a244.992 244.992 0 1 1 0 490.048 244.992 244.992 0 0 1 0-490.048z m0 98.048a147.008 147.008 0 1 0 0 293.952 147.008 147.008 0 0 0 0-293.952z" fill="currentColor" p-id="1479"></path></svg>