<?xml version="1.0" standalone="no"?><!DOCTYPE svg PUBLIC "-//W3C//DTD SVG 1.1//EN" "http://www.w3.org/Graphics/SVG/1.1/DTD/svg11.dtd"><svg t="1619954026786" class="icon" viewBox="0 0 1024 1024" version="1.1" xmlns="http://www.w3.org/2000/svg" p-id="1425" xmlns:xlink="http://www.w3.org/1999/xlink" width="200" height="200"><defs><style type="text/css"></style></defs><path d="M213.312 960a128 128 0 0 1-128-128V362.688c0-13.184 6.08-25.6 16.512-33.728l384-298.624a42.688 42.688 0 0 1 52.352 0l384 298.624c10.432 8.128 16.512 20.48 16.512 33.728V832a128 128 0 0 1-128 128zM512 118.016L170.624 383.488V832c0 21.44 15.808 39.168 36.416 42.24l6.272 0.448h128v-384c0-21.44 15.808-39.168 36.352-42.24L384 448h256c21.44 0 39.168 15.808 42.24 36.352l0.448 6.336v384h128a42.688 42.688 0 0 0 42.24-36.352l0.384-6.336V383.488L512 118.016z m85.312 415.296H426.624v341.312h170.624l0.064-341.312z" fill="currentColor" p-id="1426"></path></svg>