<?xml version="1.0" standalone="no"?><!DOCTYPE svg PUBLIC "-//W3C//DTD SVG 1.1//EN" "http://www.w3.org/Graphics/SVG/1.1/DTD/svg11.dtd"><svg t="1619868432139" class="icon" viewBox="0 0 1152 1024" version="1.1" xmlns="http://www.w3.org/2000/svg" p-id="1425" xmlns:xlink="http://www.w3.org/1999/xlink" width="225" height="200"><defs><style type="text/css"></style></defs><path d="M970.458771 1023.872064H181.029485C82.262869 1023.872064 0 941.353323 0 842.266867V380.033983c0-99.022489 82.262869-181.541229 180.965517-181.541229H970.394803c98.702649 0 180.965517 82.518741 180.965517 181.541229v462.232884C1151.424288 941.353323 1069.161419 1023.872064 970.458771 1023.872064zM181.029485 297.515242c-46.056972 0-82.262869 36.333833-82.262868 82.518741v462.232884c0 46.248876 36.205897 82.518741 82.262868 82.51874H970.394803c46.056972 0 82.262869-36.269865 82.262868-82.51874V380.033983c0-46.184908-36.205897-82.518741-82.262868-82.518741H181.029485z" fill="#141414" p-id="1426"></path><path d="M98.702649 512.127936H1085.537231v99.022489H98.702649z" fill="currentColor" p-id="1427"></path><path d="M361.867066 710.236882a50.662669 50.662669 0 0 1-49.31934-49.511245V462.616692c0-26.418791 23.028486-49.511244 49.31934-49.511245 26.354823 0 49.383308 23.028486 49.383309 49.511245v198.108945c0 26.354823-23.028486 49.511244-49.383309 49.511245z m427.690155 0a50.662669 50.662669 0 0 1-49.383308-49.511245V462.616692c0-26.418791 23.028486-49.511244 49.383308-49.511245 26.290855 0 49.31934 23.028486 49.319341 49.511245v198.108945c0 26.354823-23.028486 49.511244-49.319341 49.511245zM773.117441 297.515242H378.306847c-62.496752 0-115.142429-52.837581-115.142429-115.526237V115.910045c0-62.688656 52.645677-115.526237 115.142429-115.526237h394.810594c62.496752 0 115.142429 52.837581 115.142429 115.526237V182.052974c0 62.688656-52.645677 115.526237-115.142429 115.526236zM378.306847 99.406297c-9.851074 0-16.43978 6.652674-16.439781 16.503748V182.052974c0 9.915042 6.588706 16.503748 16.439781 16.503748h394.810594c9.851074 0 16.43978-6.588706 16.43978-16.503748V115.910045c0-9.851074-6.588706-16.503748-16.43978-16.503748H378.306847z" fill="#141414" p-id="1428"></path></svg>