<?xml version="1.0" standalone="no"?><!DOCTYPE svg PUBLIC "-//W3C//DTD SVG 1.1//EN" "http://www.w3.org/Graphics/SVG/1.1/DTD/svg11.dtd"><svg t="1619320593858" class="icon" viewBox="0 0 1024 1024" version="1.1" xmlns="http://www.w3.org/2000/svg" p-id="1904" xmlns:xlink="http://www.w3.org/1999/xlink" width="128" height="128"><defs><style type="text/css"></style></defs><path d="M512 21.312a124.16 124.16 0 0 1 124.16 124.16v3.456c0 9.792 5.824 18.624 15.232 22.656 9.216 4.032 19.904 2.112 26.752-4.544l2.432-2.432a124.16 124.16 0 1 1 175.616 175.552l-2.112 2.112a24.512 24.512 0 0 0-4.928 27.072 42.688 42.688 0 0 1 1.984 5.568l0.512 2.24c3.584 5.312 9.088 8.96 15.232 10.24l4.736 0.512h6.912a124.16 124.16 0 1 1 0 248.192h-3.456a24.704 24.704 0 0 0-22.656 15.36 24.384 24.384 0 0 0 4.544 26.688l2.432 2.432a124.16 124.16 0 1 1-175.552 175.616l-2.112-2.112a24.704 24.704 0 0 0-27.52-4.736 24.448 24.448 0 0 0-14.848 22.272v6.912a124.16 124.16 0 1 1-248.192 0v-2.624c-0.256-10.112-6.592-19.008-18.56-23.488a24.384 24.384 0 0 0-26.752 4.544l-2.432 2.432a124.16 124.16 0 1 1-175.616-175.552l2.112-2.112c7.04-7.168 8.96-17.92 4.736-27.52a24.448 24.448 0 0 0-22.272-14.848h-6.912a124.16 124.16 0 0 1 0-248.192h2.624c10.112-0.256 19.008-6.592 23.488-18.56a24.384 24.384 0 0 0-4.544-26.752l-2.432-2.432a124.16 124.16 0 1 1 175.552-175.616l2.112 2.112c7.168 7.04 17.92 8.96 27.072 4.928a42.688 42.688 0 0 1 5.568-1.984l2.24-0.576a24.128 24.128 0 0 0 10.24-15.168l0.512-4.736v-6.912A124.16 124.16 0 0 1 512 21.312z m0 85.376a38.784 38.784 0 0 0-38.784 38.784v7.04a109.888 109.888 0 0 1-66.56 100.608 42.688 42.688 0 0 1-16.832 3.392l-5.44 2.88a110.08 110.08 0 0 1-94.336-21.888l-7.808-6.912-2.432-2.432a38.784 38.784 0 1 0-54.912 54.912l2.752 2.816c31.424 32.064 40.128 80.064 23.04 118.656A110.208 110.208 0 0 1 149.12 476.48h-3.648a38.784 38.784 0 0 0 0 77.568h7.04a109.696 109.696 0 0 1 100.416 66.176 110.08 110.08 0 0 1-22.336 121.536l-2.432 2.432a38.784 38.784 0 1 0 54.912 54.912l2.816-2.752c32.064-31.424 80.064-40.128 118.656-23.04a110.208 110.208 0 0 1 71.936 101.568v3.648a38.784 38.784 0 1 0 77.568 0v-7.04a109.696 109.696 0 0 1 66.176-100.416 110.08 110.08 0 0 1 121.536 22.336l2.432 2.432a38.784 38.784 0 1 0 54.912-54.912l-2.752-2.816a109.696 109.696 0 0 1-22.208-120.768 109.952 109.952 0 0 1 100.736-66.56h3.648a38.784 38.784 0 1 0 0-77.568h-7.04a109.888 109.888 0 0 1-100.608-66.56 42.688 42.688 0 0 1-3.392-16.832l-2.88-5.44a110.08 110.08 0 0 1 21.888-94.336l6.912-7.808 2.432-2.432a38.784 38.784 0 1 0-54.912-54.912l-2.816 2.752a109.696 109.696 0 0 1-120.768 22.208 109.952 109.952 0 0 1-66.56-100.736v-3.648A38.784 38.784 0 0 0 512 106.688z m0 240.448a164.864 164.864 0 1 1 0 329.728 164.864 164.864 0 0 1 0-329.728z m0 85.376a79.488 79.488 0 1 0 0 158.976 79.488 79.488 0 0 0 0-158.976z" fill="currentColor" p-id="1905"></path></svg>