<?xml version="1.0" standalone="no"?><!DOCTYPE svg PUBLIC "-//W3C//DTD SVG 1.1//EN" "http://www.w3.org/Graphics/SVG/1.1/DTD/svg11.dtd"><svg t="1619320371106" class="icon" viewBox="0 0 1024 1024" version="1.1" xmlns="http://www.w3.org/2000/svg" p-id="1762" xmlns:xlink="http://www.w3.org/1999/xlink" width="128" height="128"><defs><style type="text/css"></style></defs><path d="M851.6 506.06l0.42 5.94v139.92l19.98 0.06c52.32 0 95.28 40.2 99.6 91.38l0.42 8.64v120c0 55.2-44.82 100.02-100.02 100.02h-120c-55.2 0-100.02-44.82-100.02-100.02v-120c0-55.2 44.82-100.02 100.02-100.02h19.92V551.9H251.96v99.96l20.04 0.06c52.32 0 95.28 40.2 99.6 91.38l0.42 8.64v120c0 55.2-44.82 100.02-100.02 100.02H152C96.8 972.02 51.98 927.2 51.98 872v-120c0-55.2 44.82-100.02 100.02-100.02h19.92L171.98 512c0-22.08 17.94-40.02 40.02-40.02h259.92V371.9H452c-52.32 0-95.28-40.14-99.6-91.32L351.92 272V152C351.98 96.8 396.8 51.98 452 51.98h120c55.2 0 100.02 44.82 100.02 100.02v120c0 55.2-44.82 100.02-100.02 100.02h-20.04v99.9L812 471.98c20.1 0 36.72 14.82 39.6 34.08zM272 732.02H152a19.98 19.98 0 0 0-19.98 19.98v120c0 11.04 8.94 19.98 19.98 19.98h120c11.04 0 19.98-8.94 19.98-19.98v-120A19.98 19.98 0 0 0 272 732.02z m600 0h-120a19.98 19.98 0 0 0-19.98 19.98v120c0 11.04 8.94 19.98 19.98 19.98h120c11.04 0 19.98-8.94 19.98-19.98v-120a19.98 19.98 0 0 0-19.98-19.98z m-300-600H452A19.98 19.98 0 0 0 432.02 152v120c0 11.04 8.94 19.98 19.98 19.98h120c11.04 0 19.98-8.94 19.98-19.98V152A19.98 19.98 0 0 0 572 132.02z" fill="currentColor" p-id="1763"></path></svg>